# xmcd
#
# Track frame offsets:
#	150
#	14252
#	29809
#	43010
#	54701
#	69719
#	82996
#	97038
#	110486
#	124370
#	133216
#	147724
#	160402
#	178613
#	192210
#	204082
#	219056
#
# Disc length: 3114 seconds
#
# Revision: 1
# Processed by: cddbd v1.5.2PL0 Copyright (c) Steve Scherf et al.
# Submitted via: audiograbber 1.83.01
#
DISCID=010c2811
DTITLE=HANK WILLIAMS SR - CB5075-01
DYEAR=1900
DGENRE=
TTITLE0=HEY GOOD LOOKING
TTITLE1=KAW-LIGA
TTITLE2=COLD, COLD HEART
TTITLE3=I CAN'T HELP IT IF I'M STILL IN LOVE WITH YOU
TTITLE4=JAMBALAYA
TTITLE5=HONKY TONKIN'
TTITLE6=I'M SO LONESOME I COULD CRY
TTITLE7=MOVE IT ON OVER
TTITLE8=I'M A LONG GONE DADDY
TTITLE9=I CAN'T GET YOU OFF MY MIND
TTITLE10=MIND YOUR OWN BUSINESS
TTITLE11=MY BUCKET'S GOT A HOLE IN IT
TTITLE12=COOL WATER
TTITLE13=LOVESICK BLUES
TTITLE14=PLEASE DON'T LET ME LOVE YOU
TTITLE15=WEDDING BELLS
TTITLE16=YOU'RE GONNA CHANGE OR I'M GONNA LEAVE
EXTD=
EXTT0=
EXTT1=
EXTT2=
EXTT3=
EXTT4=
EXTT5=
EXTT6=
EXTT7=
EXTT8=
EXTT9=
EXTT10=
EXTT11=
EXTT12=
EXTT13=
EXTT14=
EXTT15=
EXTT16=
PLAYORDER=
